<svg width="488" height="228" viewBox="0 0 488 228" fill="none" xmlns="http://www.w3.org/2000/svg">
<g clip-path="url(#clip0_131_7)">
<path d="M367.728 98.0589V55.602C367.728 51.3686 370.814 47.9248 374.608 47.9248H399.501C403.295 47.9248 406.382 51.3686 406.382 55.602V98.0589C406.382 102.292 403.295 105.736 399.501 105.736H374.608C370.814 105.736 367.728 102.292 367.728 98.0589Z" fill="#425F57"/>
<path d="M380.475 66.2776H393.634V62.607H380.475V66.2776Z" fill="#3F3D56"/>
<path d="M383.765 59.854H390.345V47.9247H383.765V59.854Z" fill="#3F3D56"/>
<path d="M383.765 105.736H390.345V93.8068H383.765V105.736Z" fill="#3F3D56"/>
<path d="M350.045 99.7751H311.993C308.199 99.7751 305.112 96.3312 305.112 92.0979V64.3232C305.112 60.0898 308.199 56.646 311.993 56.646H350.045C353.839 56.646 356.926 60.0898 356.926 64.3232V92.0979C356.926 96.3312 353.839 99.7751 350.045 99.7751Z" fill="#425F57"/>
<path d="M338.421 62.6106H325.262V66.2812H338.421V62.6106Z" fill="#3F3D56"/>
<path d="M315.804 81.8812V74.54H305.113V81.8812H315.804Z" fill="#3F3D56"/>
<path d="M356.926 81.8811V74.54H346.234V81.8811H356.926Z" fill="#3F3D56"/>
<path d="M41.3735 179.168L35.0211 137.823C32.1984 119.451 44.3854 102.45 61.0691 101.486L151.629 96.2524L173.242 56.5073C176.107 51.2382 181.23 48.0205 186.754 48.0205H251.824C256.938 48.0205 261.26 52.2525 261.924 57.9112L263.576 89.7134L425.802 90.2553L446.21 165.295L427.267 164.265L428.239 187.026L403.468 188.11L395.21 162.058C393.655 157.152 386.842 151.621 379.76 146.994C363.883 136.619 343.486 139.949 331.472 155.496C328.637 159.164 326.656 162.985 326.102 166.568L322.355 190.819L140.701 187.568L116.893 150.41C109.859 141.869 76.6553 138.732 73.6651 150.41L55.7019 179.981L41.3735 179.168H41.3735Z" fill="white"/>
<path d="M238.812 72.2048L244.156 100.317L176.157 101.943L190.519 67.538C191.822 64.4169 194.682 62.4791 197.764 62.6287L230.349 64.2094C234.474 64.4095 237.955 67.6983 238.812 72.2048V72.2048Z" fill="#CCCCCC"/>
<path d="M166.929 99.775L180.529 60.7559L176.968 56.7832L154.786 94.3557L159.293 101.943L166.929 99.775Z" fill="white"/>
<path d="M361.697 226.587C379.401 226.587 393.753 210.573 393.753 190.819C393.753 171.066 379.401 155.052 361.697 155.052C343.992 155.052 329.64 171.066 329.64 190.819C329.64 210.573 343.992 226.587 361.697 226.587Z" fill="#3F3D56"/>
<path d="M339.597 190.819C339.597 177.223 349.511 166.162 361.697 166.162C373.883 166.162 383.796 177.223 383.796 190.819C383.796 204.416 373.883 215.477 361.697 215.477C349.511 215.477 339.597 204.416 339.597 190.819ZM340.083 190.819C340.083 204.117 349.779 214.935 361.697 214.935C373.615 214.935 383.311 204.117 383.311 190.819C383.311 177.522 373.615 166.704 361.697 166.704C349.779 166.704 340.083 177.522 340.083 190.819Z" fill="white"/>
<path d="M342.754 190.819C342.754 202.492 351.235 211.955 361.697 211.955C372.159 211.955 380.64 202.492 380.64 190.819C380.64 179.147 372.159 169.684 361.697 169.684C351.235 169.684 342.754 179.147 342.754 190.819ZM374.01 185.758L370.654 188.199L369.365 185.991L374.01 185.758ZM368.901 198.171L369.795 195.732L372.609 199.863L368.901 198.171ZM360.307 206.535L362.668 202.066V206.535H360.307ZM360.307 180.657L362.668 176.187V180.657H360.307ZM349.814 199.863L352.628 195.732L353.522 198.171L349.814 199.863ZM348.412 185.758L353.058 185.991L351.768 188.199L348.412 185.758Z" fill="#E6E6E6"/>
<path d="M92.6157 226.587C110.32 226.587 124.672 210.573 124.672 190.819C124.672 171.066 110.32 155.052 92.6157 155.052C74.9113 155.052 60.5591 171.066 60.5591 190.819C60.5591 210.573 74.9113 226.587 92.6157 226.587Z" fill="#3F3D56"/>
<path d="M70.5161 190.819C70.5161 177.223 80.4299 166.162 92.6158 166.162C104.802 166.162 114.715 177.223 114.715 190.819C114.715 204.416 104.802 215.477 92.6158 215.477C80.4299 215.477 70.5161 204.416 70.5161 190.819ZM71.0018 190.819C71.0018 204.117 80.6977 214.935 92.6158 214.935C104.534 214.935 114.23 204.117 114.23 190.819C114.23 177.522 104.534 166.704 92.6158 166.704C80.6977 166.704 71.0018 177.522 71.0018 190.819Z" fill="white"/>
<path d="M73.6729 190.819C73.6729 202.492 82.1537 211.955 92.6154 211.955C103.077 211.955 111.558 202.492 111.558 190.819C111.558 179.147 103.077 169.684 92.6154 169.684C82.1537 169.684 73.6729 179.147 73.6729 190.819ZM104.929 185.758L101.572 188.199L100.283 185.991L104.929 185.758ZM99.8192 198.171L100.713 195.732L103.527 199.863L99.8192 198.171ZM91.2252 206.535L93.5868 202.066V206.535H91.2252ZM91.2252 180.657L93.5868 176.187V180.657H91.2252ZM80.7321 199.863L83.5464 195.732L84.4402 198.171L80.7321 199.863ZM79.3307 185.758L83.9764 185.991L82.6869 188.199L79.3307 185.758Z" fill="#E6E6E6"/>
<path d="M226.428 114.678H244.885V110.343H226.428V114.678Z" fill="#3F3D56"/>
<path d="M486.575 199.785C486.403 199.198 485.099 199.456 484.974 198.931C484.849 198.408 486.1 197.969 487.06 196.493C487.233 196.227 488.323 194.551 487.905 193.846C487.112 192.509 481.597 195.838 480.273 193.97C479.982 193.56 479.863 192.856 478.997 191.547C478.653 191.026 478.432 190.774 478.168 190.781C477.793 190.792 477.659 191.315 477.071 192.262C476.188 193.682 475.869 193.504 475.288 194.667C474.856 195.531 474.805 196.083 474.493 196.116C474.053 196.162 473.871 195.086 473.332 195.045C472.783 195.002 472.233 196.065 471.961 196.895C471.45 198.453 471.766 199.644 471.836 200.831C471.913 202.121 471.734 204.009 470.478 206.432L458.63 227.493C461.175 223.199 468.397 211.492 471.307 207.197C472.147 205.958 473.05 204.713 474.439 204.479C475.777 204.253 477.404 204.992 479.676 204.949C479.941 204.944 480.68 204.919 480.859 204.482C481.008 204.121 480.639 203.808 480.773 203.468C480.953 203.013 481.763 203.208 482.866 202.906C483.643 202.693 484.172 202.341 484.626 202.038C484.763 201.946 486.804 200.567 486.575 199.785H486.575Z" fill="#CCCCCC"/>
<path d="M455.545 204.702C455.237 204.627 454.974 205.416 454.707 205.333C454.441 205.25 454.609 204.438 454.237 203.487C454.17 203.316 453.747 202.235 453.316 202.26C452.499 202.309 452.372 206.29 451.169 206.476C450.904 206.517 450.56 206.379 449.734 206.475C449.406 206.513 449.231 206.562 449.159 206.708C449.055 206.917 449.246 207.141 449.493 207.736C449.863 208.63 449.693 208.753 450.037 209.407C450.292 209.893 450.52 210.08 450.445 210.26C450.338 210.514 449.812 210.304 449.639 210.586C449.461 210.875 449.77 211.483 450.057 211.871C450.595 212.601 451.21 212.771 451.752 213.075C452.342 213.406 453.121 214.048 453.824 215.436L459.67 228C458.516 225.368 455.449 218.035 454.4 215.202C454.097 214.384 453.81 213.531 454.108 212.702C454.395 211.905 455.189 211.227 455.826 209.97C455.9 209.823 456.102 209.412 455.962 209.188C455.846 209.002 455.602 209.114 455.491 208.942C455.343 208.712 455.662 208.325 455.847 207.634C455.978 207.147 455.976 206.756 455.974 206.419C455.973 206.318 455.955 204.803 455.545 204.702V204.702V204.702Z" fill="#CCCCCC"/>
<path d="M461.377 207.768L461.561 205.875L461.673 205.756C462.195 205.206 462.521 204.624 462.643 204.024C462.663 203.929 462.678 203.833 462.693 203.734C462.754 203.345 462.83 202.861 463.166 202.359C463.353 202.079 463.85 201.446 464.362 201.667C464.5 201.725 464.593 201.825 464.658 201.931C464.674 201.912 464.691 201.894 464.709 201.874C464.93 201.634 465.085 201.546 465.234 201.462C465.348 201.397 465.467 201.33 465.667 201.151C465.754 201.073 465.825 201.002 465.884 200.943C466.064 200.764 466.293 200.555 466.608 200.638C466.942 200.739 467.056 201.095 467.132 201.33C467.268 201.749 467.31 202.037 467.337 202.229C467.347 202.299 467.359 202.377 467.367 202.403C467.441 202.608 468.357 202.661 468.702 202.684C469.478 202.731 470.149 202.771 470.31 203.364C470.426 203.787 470.185 204.25 469.572 204.774C469.382 204.937 469.191 205.05 469.025 205.134C469.127 205.242 469.208 205.388 469.213 205.588C469.224 206.061 468.79 206.424 467.922 206.668C467.706 206.73 467.416 206.811 467.036 206.79C466.857 206.78 466.701 206.75 466.567 206.721C466.547 206.806 466.511 206.894 466.445 206.978C466.252 207.225 465.94 207.288 465.516 207.149C465.048 207.003 464.679 206.806 464.353 206.632C464.068 206.48 463.823 206.351 463.617 206.316C463.233 206.256 462.876 206.52 462.449 206.871L461.377 207.768L461.377 207.768Z" fill="#CCCCCC"/>
<path d="M464.435 196.986L462.748 197.268L462.616 197.177C462.007 196.753 461.419 196.549 460.868 196.569C460.781 196.572 460.694 196.58 460.604 196.589C460.252 196.622 459.813 196.663 459.292 196.428C459.002 196.297 458.327 195.921 458.389 195.312C458.404 195.149 458.467 195.023 458.543 194.926C458.522 194.913 458.502 194.9 458.481 194.885C458.217 194.708 458.101 194.563 457.99 194.423C457.905 194.316 457.816 194.206 457.611 194.035C457.521 193.96 457.442 193.902 457.375 193.853C457.175 193.705 456.935 193.51 456.927 193.149C456.93 192.763 457.209 192.549 457.394 192.408C457.723 192.155 457.962 192.037 458.121 191.959C458.179 191.93 458.245 191.898 458.265 191.882C458.424 191.751 458.238 190.748 458.169 190.37C458.013 189.521 457.878 188.787 458.351 188.462C458.689 188.23 459.151 188.373 459.761 188.901C459.951 189.065 460.097 189.243 460.212 189.401C460.28 189.263 460.386 189.138 460.558 189.082C460.965 188.95 461.389 189.327 461.822 190.202C461.93 190.419 462.074 190.711 462.152 191.127C462.189 191.322 462.202 191.499 462.211 191.65C462.29 191.65 462.376 191.667 462.465 191.717C462.728 191.863 462.862 192.184 462.849 192.676C462.841 193.218 462.763 193.667 462.695 194.063C462.636 194.408 462.586 194.706 462.608 194.938C462.653 195.366 462.973 195.685 463.386 196.057L464.435 196.986H464.435L464.435 196.986Z" fill="#CCCCCC"/>
<path d="M464.663 191.332L464.846 189.439L464.959 189.32C465.48 188.77 465.807 188.188 465.929 187.588C465.949 187.493 465.964 187.396 465.979 187.298C466.04 186.909 466.116 186.425 466.451 185.923C466.639 185.643 467.135 185.01 467.647 185.231C467.786 185.289 467.879 185.389 467.944 185.495C467.96 185.476 467.977 185.458 467.994 185.438C468.216 185.198 468.37 185.11 468.519 185.026C468.634 184.961 468.752 184.894 468.952 184.715C469.04 184.637 469.11 184.566 469.17 184.507C469.349 184.328 469.579 184.118 469.894 184.201C470.228 184.303 470.342 184.658 470.418 184.893C470.554 185.313 470.595 185.601 470.623 185.792C470.633 185.862 470.644 185.941 470.653 185.967C470.726 186.172 471.643 186.225 471.988 186.247C472.763 186.294 473.435 186.335 473.596 186.927C473.712 187.351 473.47 187.813 472.858 188.338C472.667 188.501 472.476 188.614 472.31 188.698C472.412 188.806 472.494 188.952 472.499 189.152C472.51 189.625 472.076 189.987 471.207 190.232C470.992 190.293 470.702 190.375 470.322 190.354C470.143 190.344 469.986 190.314 469.853 190.285C469.833 190.37 469.796 190.458 469.731 190.542C469.537 190.789 469.225 190.852 468.802 190.712C468.334 190.567 467.965 190.369 467.639 190.195C467.354 190.044 467.108 189.915 466.902 189.879C466.519 189.82 466.162 190.084 465.734 190.435L464.663 191.332L464.663 191.332Z" fill="#CCCCCC"/>
<path d="M459.19 227.601L458.892 227.272L458.897 226.804L458.892 227.272L458.477 227.223C458.479 227.179 458.476 227.077 458.473 226.919C458.457 226.048 458.408 223.398 458.738 219.326C458.969 216.483 459.355 213.598 459.886 210.748C460.417 207.894 460.968 205.771 461.41 204.064C461.745 202.777 462.082 201.556 462.411 200.366C463.289 197.189 464.119 194.187 464.633 190.764C464.748 189.999 464.986 188.409 464.498 186.531C464.214 185.442 463.728 184.417 463.054 183.485L463.707 182.897C464.451 183.926 464.988 185.062 465.303 186.271C465.845 188.353 465.585 190.086 465.46 190.919C464.937 194.403 464.099 197.433 463.212 200.642C462.885 201.827 462.548 203.042 462.216 204.324C461.777 206.015 461.231 208.12 460.707 210.938C460.183 213.753 459.802 216.603 459.573 219.41C459.247 223.43 459.296 226.041 459.312 226.899C459.32 227.357 459.322 227.453 459.19 227.601V227.601Z" fill="#CCCCCC"/>
<path d="M461.263 184.562C461.229 184.554 461.196 184.545 461.162 184.533C460.473 184.318 459.921 183.692 459.52 182.673C459.332 182.194 459.288 181.689 459.199 180.683C459.185 180.528 459.124 179.744 459.199 178.704C459.248 178.024 459.314 177.751 459.48 177.537C459.664 177.298 459.912 177.161 460.174 177.093C460.181 177.003 460.207 176.915 460.26 176.831C460.475 176.485 460.836 176.628 461.032 176.702C461.13 176.741 461.253 176.791 461.392 176.817C461.609 176.859 461.739 176.817 461.935 176.753C462.123 176.692 462.357 176.617 462.68 176.623C463.317 176.633 463.789 176.952 463.944 177.058C464.764 177.607 465.047 178.483 465.374 179.498C465.439 179.701 465.655 180.437 465.705 181.383C465.742 182.066 465.661 182.346 465.569 182.546C465.381 182.957 465.094 183.147 464.38 183.548C463.634 183.968 463.26 184.178 462.953 184.286C462.239 184.536 461.79 184.693 461.263 184.562V184.562V184.562Z" fill="#CCCCCC"/>
<path d="M0 226.787C0 227.145 0.449415 227.432 1.00906 227.432H482.719C483.278 227.432 483.728 227.145 483.728 226.787C483.728 226.43 483.278 226.143 482.719 226.143H1.00906C0.449415 226.143 0 226.43 0 226.787Z" fill="#749F82"/>
<path d="M244.767 222.716L251.511 222.715L254.719 193.691L244.766 193.692L244.767 222.716Z" fill="#FFB6B6"/>
<path d="M267.872 222.545C268.082 222.94 268.193 224.213 268.193 224.672C268.193 226.082 267.168 227.226 265.904 227.226L245.019 227.226C244.157 227.226 243.458 226.446 243.458 225.484V224.513C243.458 224.513 242.425 221.598 244.552 218.004C244.552 218.004 247.196 220.818 251.146 216.41L252.311 214.055L260.743 220.936L265.417 221.578C266.44 221.719 267.346 221.557 267.872 222.545H267.872L267.872 222.545Z" fill="#2F2E41"/>
<path d="M214.467 222.716L221.211 222.715L224.419 193.691L214.466 193.692L214.467 222.716Z" fill="#FFB6B6"/>
<path d="M237.573 222.545C237.783 222.94 237.893 224.213 237.893 224.672C237.893 226.082 236.869 227.226 235.605 227.226L214.72 227.226C213.857 227.226 213.158 226.446 213.158 225.484V224.513C213.158 224.513 212.125 221.598 214.252 218.004C214.252 218.004 216.896 220.818 220.846 216.41L222.011 214.055L230.443 220.936L235.117 221.578C236.14 221.719 237.047 221.557 237.573 222.545H237.573L237.573 222.545Z" fill="#2F2E41"/>
<path d="M243.699 24.5362L244.979 37.8686L230.043 36.4401L232.603 24.0601L243.699 24.5362Z" fill="#FFB6B6"/>
<path opacity="0.1" d="M243.699 24.5362L244.979 37.8686L230.043 36.4401L232.603 24.0601L243.699 24.5362Z" fill="black"/>
<path d="M238.365 26.2027C243.786 26.2027 248.18 21.2995 248.18 15.2511C248.18 9.20275 243.786 4.29956 238.365 4.29956C232.944 4.29956 228.549 9.20275 228.549 15.2511C228.549 21.2995 232.944 26.2027 238.365 26.2027Z" fill="#FFB6B6"/>
<path d="M244.766 32.3927L261.196 43.1062L255.813 72.1518L259.489 111.197L256.928 206.904L241.139 204.999L239.005 123.577L226.629 207.856H211.296L213.826 116.91L221.508 78.3418L216.813 36.4401L231.11 31.4404L244.766 32.3927Z" fill="#2F2E41"/>
<path d="M245.406 18.3462C245.406 18.3462 246.26 15.0131 248.18 15.2512C250.1 15.4893 250.527 13.5846 250.1 12.6323C249.674 11.68 248.82 6.91846 248.82 6.91846C248.82 6.91846 249.247 3.58536 246.686 3.10921C244.126 2.63306 243.272 2.1569 242.846 1.20459C242.419 0.252276 236.018 -0.700033 233.884 0.728433C231.75 2.1569 230.043 4.89761 228.549 5.66996C227.056 6.44231 225.775 7.87077 226.629 10.2516C227.482 12.6323 228.72 17.2886 228.72 17.2886C228.72 17.2886 230.896 16.4416 231.323 17.87C231.75 19.2985 230.043 17.3939 232.177 13.5846C234.311 9.7754 234.311 5.96615 237.725 7.39462C241.139 8.82309 244.979 8.34693 244.553 11.2039C244.126 14.0608 245.406 18.3462 245.406 18.3462L245.406 18.3462Z" fill="#2F2E41"/>
<path d="M252.724 102.655C250.669 105.082 250.127 108.231 251.511 109.69C252.895 111.148 255.682 110.363 257.737 107.935C258.569 106.978 259.185 105.812 259.531 104.535L268.118 94.1301L263.656 89.738L255.664 100.462C254.541 100.92 253.533 101.672 252.724 102.655Z" fill="#FFB6B6"/>
<path d="M261.023 42.8682L275.484 70.3566L277.626 82.9057L263.701 102.626L257.81 94.2597L264.772 82.9057L253.525 60.7954L261.023 42.8682Z" fill="#2F2E41"/>
<path d="M220.366 100.095V67.6851C220.366 62.7452 223.967 58.7266 228.395 58.7266H272.798C277.225 58.7266 280.827 62.7452 280.827 67.6851V100.095C280.827 105.035 277.225 109.054 272.798 109.054H228.395C223.967 109.054 220.366 105.035 220.366 100.095Z" fill="#425F57"/>
<path d="M241.959 79.1826H257.314V74.8994H241.959V79.1826Z" fill="#3F3D56"/>
<path d="M256.056 108.767V100.2H243.58V108.767H256.056Z" fill="#3F3D56"/>
<path d="M256.642 67.58V59.0137H244.165V67.58H256.642Z" fill="#3F3D56"/>
<path d="M224.859 96.4649C226.914 98.8916 227.456 102.041 226.072 103.5C224.688 104.958 221.901 104.173 219.846 101.745C219.013 100.787 218.398 99.6216 218.052 98.3447L209.465 87.9399L213.927 83.5479L221.919 94.2715C223.042 94.7301 224.05 95.4822 224.859 96.4649Z" fill="#FFB6B6"/>
<path d="M216.559 36.6782L202.099 64.1667L199.957 76.7158L213.882 96.4358L219.773 88.0697L212.81 76.7158L224.058 54.6055L216.559 36.6782Z" fill="#2F2E41"/>
<path d="M36.7513 167.752C43.994 167.752 49.8654 162.05 49.8654 155.016C49.8654 147.983 43.994 142.281 36.7513 142.281C29.5086 142.281 23.6372 147.983 23.6372 155.016C23.6372 162.05 29.5086 167.752 36.7513 167.752Z" fill="#E6E6E6"/>
</g>
<defs>
<clipPath id="clip0_131_7">
<rect width="488" height="228" fill="white"/>
</clipPath>
</defs>
</svg>
