<svg width="42" height="42" viewBox="0 0 42 42" fill="none" xmlns="http://www.w3.org/2000/svg">
<path d="M39.6818 0H2.31817C1.03775 0 0 1.03775 0 2.31817V39.6824C0 40.9622 1.03775 42 2.31817 42H22.4333V25.7355H16.9598V19.397H22.4333V14.7222C22.4333 9.29717 25.7466 6.34375 30.5859 6.34375C32.9041 6.34375 34.8962 6.51583 35.4772 6.59342V12.2628L32.1207 12.2646C29.4887 12.2646 28.9794 13.5152 28.9794 15.3504V19.3976H35.2561L34.4388 25.7361H28.9794V42H39.6824C40.9622 42 42 40.9622 42 39.6818V2.31817C42 1.03775 40.9622 0 39.6818 0Z" fill="white"/>
</svg>
