<svg width="42" height="42" viewBox="0 0 42 42" fill="none" xmlns="http://www.w3.org/2000/svg">
<path d="M6.53012 21.7256C7.55504 22.53 8.72696 22.9319 10.0453 22.9319C11.7107 22.8707 13.0985 22.2722 14.2091 21.1376C14.7446 20.3343 15.0888 19.5095 15.2416 18.6643C15.3332 17.8202 15.3793 17.1079 15.3793 16.5304C15.3793 14.0361 14.7411 11.5208 13.4654 8.98442C12.8669 7.76875 12.0794 6.77884 11.1023 6.01525C10.1048 5.29425 8.95854 4.91217 7.66237 4.87134C5.94796 4.91217 4.52171 5.604 3.38596 6.94392C2.42696 8.34625 1.96846 9.91309 2.01046 11.6438C2.01046 13.9328 2.67954 16.3152 4.01946 18.7885C4.66754 19.9423 5.50462 20.9223 6.53012 21.7256Z" fill="white"/>
<path d="M10.3723 31.3268C9.91608 30.7277 9.5095 30.0861 9.1525 29.4024C8.736 28.7415 8.52833 27.9441 8.52833 27.0131C8.52833 26.4548 8.60708 25.9887 8.76575 25.616C8.90458 25.2228 9.0335 24.8617 9.1525 24.5304C8.43383 24.6138 7.756 24.6546 7.11958 24.6546C4.10433 24.6185 1.73133 23.7639 0 22.095V33.3755C1.547 32.6667 3.14942 32.1691 4.80725 31.8816C7.04083 31.5526 8.89583 31.3676 10.3723 31.3268Z" fill="white"/>
<path d="M12.0983 33.1141C11.6953 33.0721 11.2222 33.0517 10.6779 33.0517C10.3553 33.0108 9.52933 33.0517 8.19992 33.1759C6.88975 33.3608 5.55042 33.6589 4.18075 34.0702C3.85817 34.1944 3.40492 34.3787 2.821 34.6261C2.2365 34.8938 1.64208 35.2742 1.03833 35.7688C0.652166 36.1083 0.306833 36.5027 0 36.9501V38.6703C0 40.2838 1.31133 41.5952 2.92425 41.5952H18.8644C18.865 41.5555 18.8673 41.5176 18.8673 41.4791C18.8673 39.8737 18.3429 38.4749 17.2958 37.2808C16.1875 36.1492 14.4556 34.7608 12.0983 33.1141Z" fill="white"/>
<path d="M39.0752 0H31.5204H21.0023H10.318H2.92425C1.31075 0 0 1.31017 0 2.92483V6.09233V6.84658C0.184333 6.65058 0.375083 6.45575 0.574583 6.26325C2.373 4.78217 4.24258 3.81617 6.18158 3.36233C8.10075 2.9715 9.90033 2.77667 11.5792 2.77667H24.2328L20.3251 5.0575H16.4232C16.8204 5.30367 17.2678 5.66475 17.7642 6.13783C18.2408 6.63133 18.7081 7.23858 19.1648 7.95842C19.6017 8.63742 19.9891 9.4395 20.3268 10.3658C20.6045 11.291 20.7439 12.3725 20.7439 13.6062C20.7066 15.8702 20.2067 17.6803 19.2453 19.0382C18.7734 19.6968 18.2741 20.3029 17.7467 20.8588C17.1623 21.4147 16.5404 21.98 15.8807 22.5563C15.5038 22.9472 15.155 23.3893 14.8347 23.8834C14.4579 24.3973 14.2689 24.9941 14.2689 25.6731C14.2689 26.3317 14.4626 26.8759 14.8488 27.3082C15.1772 27.7206 15.4963 28.0805 15.806 28.3897L17.9527 30.149C19.2868 31.2392 20.4563 32.4427 21.462 33.7593C22.4099 35.0968 22.9028 36.8457 22.9413 39.0057C22.9413 39.8988 22.8258 40.7616 22.596 41.5952H39.0752C40.6887 41.5952 42 40.2838 42 38.6703V6.09175V2.92425C42 1.31017 40.6887 0 39.0752 0ZM41.3764 12.9016H34.7369V19.5417H31.5204V12.9016H24.8809V9.68508H31.5204V3.04617H34.7369V9.68508H41.3764V12.9016Z" fill="white"/>
</svg>
