<svg width="42" height="42" viewBox="0 0 42 42" fill="none" xmlns="http://www.w3.org/2000/svg">
<path d="M38.8891 0H3.10042C1.38892 0 0 1.35625 0 3.02633V38.9696C0 40.642 1.38892 42 3.10042 42H38.8891C40.6017 42 42 40.642 42 38.9696V3.02633C42 1.35625 40.6017 0 38.8891 0ZM12.4565 35.7898H6.22417V15.7471H12.4565V35.7898ZM9.34033 13.0066C7.34358 13.0066 5.7295 11.3884 5.7295 9.39342C5.7295 7.40133 7.34358 5.78317 9.34033 5.78317C11.3324 5.78317 12.9506 7.40133 12.9506 9.39342C12.9506 11.3884 11.3324 13.0066 9.34033 13.0066ZM35.7875 35.7898H29.5651V26.0435C29.5651 23.7183 29.5196 20.7287 26.327 20.7287C23.0848 20.7287 22.5907 23.261 22.5907 25.8749V35.7904H16.3637V15.7471H22.3399V18.4841H22.4251C23.2569 16.9091 25.2892 15.2472 28.3202 15.2472C34.6237 15.2472 35.7881 19.397 35.7881 24.7957V35.7898H35.7875Z" fill="white"/>
</svg>
