<svg width="684" height="698" viewBox="0 0 684 698" fill="none" xmlns="http://www.w3.org/2000/svg">
<g clip-path="url(#clip0_381_97)">
<path d="M627.339 597.161L596.008 625.417L620.907 584.49C601.29 549.641 569.207 519.523 569.207 519.523C569.207 519.523 502.645 581.995 502.645 631.101C502.645 680.208 532.445 697.354 569.207 697.354C605.968 697.354 635.768 680.208 635.768 631.101C635.768 620.171 632.466 608.579 627.339 597.161Z" fill="#F2F2F2"/>
<path d="M587.951 626.947V629.367C587.804 657.503 582.96 679.455 573.456 694.913C573.321 695.141 573.175 695.356 573.04 695.584L571.976 694.949L570.96 694.326C581.505 677.634 585.236 654.04 585.37 629.499C585.382 628.708 585.395 627.905 585.382 627.102C585.346 616.713 584.697 606.204 583.658 595.995C583.584 595.204 583.499 594.401 583.413 593.598C581.97 580.13 579.89 567.26 577.762 556.08C577.615 555.289 577.456 554.498 577.297 553.719C573.615 534.81 569.86 521.114 569.003 518.082C568.905 517.711 568.844 517.507 568.832 517.459L569.994 517.136L570.006 517.124L571.181 516.8C571.193 516.848 571.401 517.531 571.743 518.801C573.052 523.547 576.453 536.428 579.792 553.42C579.939 554.187 580.098 554.978 580.245 555.768C581.982 564.839 583.682 574.977 585.028 585.618C585.37 588.29 585.676 590.926 585.945 593.526C586.043 594.329 586.129 595.132 586.202 595.923C587.327 606.959 587.91 617.3 587.951 626.947Z" fill="white"/>
<path d="M579.792 553.42C578.972 553.527 578.14 553.635 577.296 553.719C575.004 553.95 572.702 554.066 570.397 554.067C560.577 554.079 550.88 551.934 542.018 547.788C541.505 548.423 540.991 549.058 540.465 549.705C549.786 554.162 560.025 556.474 570.397 556.463C572.857 556.462 575.315 556.334 577.761 556.08C578.593 555.996 579.425 555.888 580.244 555.768C587.009 554.818 593.588 552.866 599.755 549.98C599.229 549.321 598.715 548.674 598.214 548.039C592.377 550.712 586.169 552.525 579.792 553.42Z" fill="white"/>
<path d="M585.945 593.526C585.101 593.574 584.257 593.598 583.413 593.598C583.156 593.61 582.887 593.61 582.63 593.61C571.989 593.61 561.507 591.09 552.075 586.263C542.644 581.437 534.544 574.449 528.465 565.894C527.976 566.601 527.487 567.307 527.01 568.026C533.345 576.683 541.695 583.736 551.368 588.602C561.04 593.468 571.757 596.006 582.63 596.006C582.973 596.006 583.315 596.006 583.658 595.994C584.514 595.982 585.358 595.958 586.202 595.923C599.262 595.267 611.854 590.941 622.471 583.46C622.079 582.753 621.688 582.046 621.284 581.339C610.966 588.684 598.684 592.919 585.945 593.526Z" fill="white"/>
<path d="M587.951 626.946C587.095 627.018 586.239 627.066 585.382 627.102C584.465 627.138 583.547 627.162 582.63 627.162C568.332 627.146 554.424 622.593 542.988 614.186C531.552 605.779 523.204 593.969 519.193 580.525C518.643 581.496 518.092 582.454 517.566 583.425C522.086 596.838 530.804 608.514 542.484 616.796C554.164 625.078 568.211 629.544 582.63 629.559C583.547 629.559 584.465 629.547 585.37 629.499C586.239 629.475 587.095 629.427 587.951 629.367C605.246 628.041 621.381 620.327 633.088 607.786C632.831 606.899 632.538 606.024 632.244 605.138C620.937 617.773 605.049 625.596 587.951 626.946Z" fill="white"/>
<path d="M514.671 150.922L173.892 108.362C172.974 108.247 172.05 108.188 171.124 108.186C170.212 108.185 169.301 108.241 168.396 108.355C167.492 108.469 166.598 108.64 165.717 108.868C164.827 109.101 163.952 109.39 163.099 109.734C162.264 110.07 161.45 110.455 160.662 110.888C159.864 111.324 159.093 111.805 158.352 112.33C157.595 112.869 156.869 113.449 156.179 114.068C155.466 114.705 154.789 115.38 154.15 116.088C153.494 116.817 152.877 117.579 152.3 118.37C151.718 119.171 151.172 120.004 150.661 120.869C150.151 121.738 149.677 122.641 149.241 123.578C148.804 124.516 148.405 125.485 148.045 126.486C147.672 127.521 147.345 128.579 147.064 129.66C146.783 130.74 146.549 131.84 146.36 132.958C146.176 134.076 146.034 135.212 145.936 136.365C145.838 137.519 145.789 138.687 145.789 139.869C145.793 141.05 145.842 142.227 145.936 143.4C146.031 144.573 146.172 145.737 146.36 146.891C146.551 148.05 146.786 149.197 147.067 150.333C147.348 151.468 147.675 152.591 148.048 153.701C148.408 154.773 148.807 155.821 149.243 156.844C149.68 157.868 150.154 158.864 150.664 159.832C151.175 160.801 151.721 161.741 152.303 162.654C152.884 163.57 153.501 164.452 154.153 165.299C154.804 166.146 155.481 166.955 156.182 167.724C156.883 168.488 157.607 169.21 158.355 169.888C159.103 170.566 159.873 171.199 160.665 171.787C161.449 172.37 162.262 172.913 163.102 173.414C163.948 173.92 164.822 174.379 165.72 174.789C166.592 175.187 167.486 175.534 168.399 175.829C169.293 176.118 170.204 176.354 171.127 176.534C172.041 176.713 172.966 176.836 173.895 176.902L514.674 201.321C515.665 201.392 516.661 201.294 517.619 201.033C518.106 200.9 518.581 200.728 519.039 200.519C519.518 200.301 519.979 200.048 520.419 199.762C520.865 199.472 521.291 199.154 521.694 198.81C522.118 198.449 522.519 198.063 522.896 197.656C523.294 197.225 523.669 196.775 524.019 196.306C524.382 195.823 524.73 195.308 525.063 194.762C525.397 194.216 525.713 193.646 526.01 193.053C526.307 192.46 526.586 191.843 526.845 191.204C527.105 190.565 527.346 189.905 527.566 189.222C527.787 188.539 527.989 187.836 528.17 187.113C528.362 186.365 528.527 185.603 528.665 184.828C528.803 184.053 528.922 183.267 529.02 182.468C529.115 181.67 529.186 180.862 529.233 180.042C529.28 179.223 529.304 178.394 529.304 177.557C529.301 176.72 529.277 175.888 529.233 175.059C529.189 174.23 529.118 173.407 529.02 172.591C528.925 171.774 528.806 170.965 528.665 170.162C528.524 169.359 528.359 168.564 528.17 167.779C527.989 167.019 527.787 166.277 527.566 165.552C527.348 164.836 527.107 164.131 526.845 163.437C526.583 162.743 526.305 162.07 526.01 161.418C525.714 160.767 525.398 160.135 525.063 159.522C524.729 158.91 524.381 158.327 524.019 157.774C523.658 157.221 523.284 156.697 522.896 156.202C522.508 155.706 522.108 155.243 521.694 154.811C521.292 154.388 520.866 153.987 520.419 153.608C519.982 153.237 519.521 152.894 519.039 152.58C518.585 152.283 518.111 152.018 517.619 151.786C517.148 151.565 516.661 151.38 516.161 151.232C515.674 151.089 515.175 150.986 514.671 150.922" fill="#A8E890"/>
<path d="M514.671 246.912L173.892 238.917C172.044 238.872 170.197 239.057 168.396 239.466C167.487 239.674 166.593 239.936 165.717 240.252C164.822 240.576 163.948 240.951 163.099 241.377C162.261 241.798 161.448 242.264 160.662 242.774C159.862 243.293 159.091 243.854 158.352 244.454C157.594 245.07 156.869 245.724 156.179 246.413C155.477 247.113 154.801 247.857 154.15 248.646C153.499 249.436 152.882 250.26 152.3 251.117C151.718 251.974 151.172 252.862 150.661 253.782C150.151 254.703 149.677 255.654 149.24 256.635C148.804 257.617 148.405 258.627 148.045 259.665C147.672 260.739 147.345 261.83 147.064 262.939C146.783 264.048 146.549 265.171 146.36 266.308C146.176 267.446 146.034 268.597 145.936 269.76C145.838 270.924 145.789 272.096 145.789 273.278C145.793 274.46 145.842 275.632 145.936 276.795C146.031 277.958 146.172 279.107 146.36 280.244C146.551 281.375 146.786 282.494 147.067 283.6C147.348 284.707 147.675 285.797 148.048 286.869C148.408 287.909 148.807 288.919 149.243 289.898C149.68 290.877 150.154 291.825 150.664 292.742C151.175 293.66 151.721 294.545 152.303 295.398C152.884 296.248 153.501 297.065 154.153 297.85C154.804 298.635 155.481 299.375 156.182 300.07C156.872 300.755 157.597 301.404 158.355 302.016C159.094 302.612 159.865 303.168 160.665 303.682C161.451 304.186 162.264 304.647 163.102 305.062C163.951 305.483 164.826 305.854 165.72 306.172C166.596 306.482 167.49 306.739 168.399 306.94C169.298 307.141 170.209 307.286 171.127 307.373C172.047 307.459 172.972 307.489 173.895 307.461L514.671 297.305C515.171 297.29 515.67 297.233 516.161 297.136C516.657 297.037 517.145 296.899 517.618 296.722C518.108 296.539 518.583 296.319 519.039 296.064C519.52 295.797 519.981 295.497 520.419 295.167C520.865 294.832 521.291 294.47 521.694 294.085C522.118 293.681 522.519 293.256 522.896 292.81C523.283 292.356 523.657 291.868 524.019 291.346C524.381 290.824 524.729 290.274 525.063 289.698C525.397 289.117 525.713 288.515 526.01 287.892C526.307 287.268 526.586 286.624 526.845 285.959C527.105 285.283 527.346 284.595 527.566 283.895C527.787 283.195 527.988 282.473 528.17 281.731C528.362 280.971 528.526 280.197 528.665 279.407C528.803 278.618 528.922 277.819 529.02 277.011C529.115 276.201 529.186 275.383 529.233 274.559C529.28 273.735 529.304 272.904 529.304 272.067C529.301 271.237 529.277 270.408 529.233 269.58C529.189 268.752 529.118 267.935 529.02 267.128C528.924 266.318 528.806 265.52 528.665 264.735C528.523 263.949 528.359 263.172 528.17 262.402C527.987 261.66 527.786 260.937 527.565 260.233C527.344 259.529 527.104 258.845 526.845 258.182C526.587 257.518 526.309 256.875 526.011 256.253C525.714 255.631 525.398 255.032 525.065 254.455C524.73 253.877 524.382 253.329 524.021 252.81C523.659 252.292 523.285 251.806 522.897 251.352C522.52 250.909 522.119 250.485 521.696 250.084C521.293 249.702 520.867 249.344 520.421 249.011C519.982 248.684 519.521 248.387 519.041 248.122C518.584 247.872 518.109 247.656 517.618 247.476C517.145 247.302 516.657 247.166 516.161 247.071C515.669 246.977 515.171 246.924 514.671 246.912Z" fill="#E4E4E4"/>
<path d="M514.671 336.901L173.892 361.315C172.963 361.382 172.038 361.505 171.124 361.683C170.201 361.864 169.29 362.099 168.396 362.389C167.483 362.684 166.589 363.031 165.717 363.429C164.819 363.839 163.945 364.298 163.099 364.803C162.259 365.305 161.446 365.848 160.662 366.43C159.869 367.024 159.099 367.657 158.352 368.33C157.605 369.006 156.881 369.727 156.179 370.494C155.477 371.26 154.801 372.068 154.15 372.918C153.499 373.771 152.882 374.654 152.3 375.567C151.718 376.479 151.172 377.42 150.661 378.388C150.151 379.357 149.677 380.354 149.241 381.377C148.804 382.4 148.405 383.448 148.045 384.52C147.672 385.628 147.345 386.75 147.064 387.888C146.783 389.025 146.549 390.171 146.36 391.325C146.176 392.481 146.034 393.645 145.936 394.817C145.838 395.99 145.789 397.167 145.789 398.348C145.793 399.53 145.842 400.698 145.936 401.852C146.031 403.006 146.172 404.142 146.36 405.261C146.551 406.382 146.786 407.482 147.067 408.561C147.348 409.64 147.675 410.698 148.048 411.734C148.408 412.736 148.807 413.706 149.243 414.642C149.68 415.58 150.154 416.483 150.664 417.351C151.175 418.219 151.721 419.053 152.303 419.851C152.88 420.642 153.497 421.403 154.153 422.133C154.792 422.841 155.469 423.515 156.182 424.152C156.872 424.771 157.598 425.352 158.355 425.89C159.095 426.415 159.867 426.897 160.665 427.333C161.453 427.765 162.267 428.151 163.102 428.487C163.955 428.83 164.83 429.119 165.72 429.352C166.601 429.58 167.495 429.752 168.399 429.866C169.304 429.979 170.215 430.036 171.127 430.034C172.053 430.032 172.977 429.974 173.895 429.858L514.671 387.308C515.175 387.245 515.674 387.141 516.161 386.998C516.661 386.85 517.148 386.665 517.619 386.444C518.111 386.213 518.585 385.947 519.039 385.651C519.521 385.336 519.982 384.993 520.419 384.622C520.866 384.244 521.292 383.842 521.694 383.419C522.103 382.987 522.503 382.523 522.896 382.029C523.283 381.534 523.657 381.01 524.019 380.456C524.382 379.903 524.73 379.32 525.063 378.708C525.397 378.101 525.713 377.469 526.01 376.813C526.307 376.157 526.586 375.484 526.845 374.794C527.105 374.1 527.346 373.391 527.566 372.666C527.787 371.941 527.989 371.198 528.17 370.439C528.362 369.652 528.527 368.857 528.665 368.054C528.803 367.252 528.922 366.442 529.02 365.625C529.115 364.809 529.186 363.986 529.233 363.157C529.28 362.329 529.304 361.495 529.304 360.658C529.3 359.825 529.276 358.999 529.232 358.18C529.188 357.36 529.116 356.552 529.018 355.753C528.924 354.952 528.806 354.164 528.665 353.389C528.524 352.614 528.359 351.853 528.17 351.104C527.989 350.38 527.787 349.677 527.566 348.996C527.349 348.314 527.109 347.653 526.846 347.014C526.584 346.374 526.306 345.758 526.012 345.164C525.712 344.576 525.395 344.008 525.06 343.46C524.726 342.911 524.378 342.397 524.016 341.916C523.666 341.447 523.291 340.996 522.893 340.566C522.516 340.159 522.115 339.773 521.691 339.412C521.288 339.068 520.862 338.75 520.416 338.46C519.976 338.174 519.515 337.921 519.036 337.703C518.578 337.494 518.103 337.322 517.616 337.189C516.658 336.928 515.662 336.83 514.671 336.901" fill="#E4E4E4"/>
<path d="M328.927 341.374C331.086 344.89 334.487 347.507 338.486 348.728C342.484 349.949 346.801 349.69 350.617 347.999C354.433 346.308 357.482 343.303 359.186 339.555C360.889 335.807 361.129 331.576 359.859 327.667L425.905 194.747L394.291 175.973L337.252 317.161C337.034 317.244 336.819 317.331 336.608 317.422C336.397 317.513 336.186 317.608 335.976 317.707C335.766 317.806 335.558 317.91 335.351 318.019C335.145 318.129 334.94 318.244 334.736 318.364C330.851 320.661 328.057 324.375 326.968 328.69C325.878 333.005 326.582 337.567 328.926 341.373L328.927 341.374Z" fill="#9E616A"/>
<path d="M413.299 246.001L366.379 234.22C366.379 234.22 367.911 230.828 370.401 225.208C372.89 219.588 376.369 211.751 380.282 202.853C384.195 193.956 388.537 184.014 392.778 174.187C397.018 164.359 401.142 154.65 404.616 146.234C408.09 137.818 412.036 132.777 416.002 129.952C419.284 127.509 423.418 126.432 427.506 126.957C430.683 127.42 433.72 128.553 436.408 130.276C437.68 131.052 438.877 131.941 439.981 132.933L450.86 152.313L413.299 246.001Z" fill="#CCCCCC"/>
<path d="M37.8012 235.475C36.6649 235.557 35.5343 235.702 34.4145 235.908C33.2876 236.114 32.1732 236.382 31.0765 236.71C29.9631 237.043 28.8689 237.435 27.7988 237.884C26.7035 238.343 25.6336 238.859 24.5932 239.427C23.5753 239.988 22.5804 240.598 21.6085 241.256C20.6367 241.915 19.6928 242.623 18.777 243.38C17.8621 244.134 16.9742 244.939 16.1133 245.794C15.2524 246.649 14.4229 247.551 13.6249 248.499C12.8268 249.447 12.0704 250.429 11.3558 251.446C10.6411 252.462 9.97065 253.509 9.34438 254.587C8.72398 255.667 8.1438 256.776 7.6039 257.915C7.064 259.053 6.5732 260.218 6.13146 261.41C5.67107 262.646 5.26811 263.894 4.92256 265.156C4.57701 266.418 4.28889 267.69 4.05822 268.973C3.82655 270.255 3.65281 271.547 3.53698 272.847C3.42115 274.147 3.36325 275.452 3.36328 276.763C3.36328 278.074 3.42118 279.368 3.53698 280.645C3.65278 281.922 3.82651 283.179 4.05822 284.417C4.2889 285.654 4.57702 286.87 4.92256 288.063C5.2681 289.257 5.6696 290.425 6.12705 291.57C6.57271 292.675 7.06352 293.743 7.5995 294.776C8.12929 295.799 8.71114 296.794 9.34289 297.759C9.96474 298.706 10.6361 299.621 11.3543 300.5C12.0656 301.374 12.8235 302.21 13.6248 303.005C14.4129 303.787 15.2436 304.527 16.1133 305.221C16.9649 305.9 17.8547 306.533 18.7784 307.115C20.6014 308.264 22.5529 309.205 24.5947 309.919C26.6877 310.652 28.8628 311.136 31.0735 311.361C32.1824 311.473 33.297 311.522 34.4116 311.506C35.5441 311.49 36.6748 311.412 37.7983 311.271C38.9318 311.129 40.0565 310.926 41.1673 310.663C42.2813 310.399 43.3799 310.076 44.4582 309.695C45.5487 309.31 46.6178 308.868 47.6608 308.373C48.7236 307.868 49.7596 307.31 50.7648 306.702C51.7435 306.104 52.6967 305.463 53.6243 304.778C54.5519 304.093 55.4506 303.364 56.3204 302.589C57.1901 301.813 58.0299 300.996 58.8398 300.136C59.6496 299.277 60.4281 298.375 61.1751 297.43C61.927 296.487 62.6348 295.515 63.2984 294.515C63.962 293.515 64.5834 292.489 65.1626 291.436C65.7417 290.383 66.2777 289.305 66.7705 288.203C67.2633 287.101 67.7124 285.976 68.1178 284.828C68.538 283.639 68.9056 282.441 69.2207 281.232C69.5358 280.023 69.7989 278.806 70.0099 277.58C70.22 276.353 70.378 275.119 70.4841 273.88C70.5901 272.64 70.6431 271.395 70.6431 270.145C70.6421 268.895 70.5891 267.661 70.4841 266.441C70.379 265.222 70.221 264.02 70.0099 262.835C69.7999 261.652 69.5368 260.487 69.2207 259.339C68.9046 258.19 68.537 257.064 68.1178 255.959C67.7104 254.89 67.2613 253.853 66.7705 252.848C66.2728 251.846 65.7344 250.873 65.1552 249.931C64.0087 248.069 62.6754 246.323 61.1751 244.72C60.4389 243.931 59.6614 243.18 58.8457 242.471C58.0424 241.774 57.2014 241.121 56.3263 240.513C55.4596 239.912 54.5595 239.358 53.6302 238.853C52.7016 238.349 51.745 237.897 50.7648 237.497C48.741 236.672 46.6246 236.083 44.4597 235.745C43.3701 235.575 42.2713 235.467 41.1688 235.423C40.0456 235.379 38.9208 235.397 37.7998 235.478" fill="#E4E4E4"/>
<path d="M37.8012 371.063C36.6649 371.146 35.5343 371.29 34.4145 371.496C33.2876 371.703 32.1732 371.971 31.0765 372.298C29.9631 372.631 28.8689 373.023 27.7988 373.472C26.7035 373.932 25.6336 374.447 24.5932 375.016C23.5753 375.576 22.5804 376.186 21.6085 376.845C20.6367 377.503 19.6928 378.211 18.777 378.968C17.8621 379.723 16.9742 380.528 16.1133 381.383C15.2524 382.238 14.4229 383.139 13.6249 384.087C12.8268 385.035 12.0704 386.018 11.3558 387.034C10.6411 388.05 9.97065 389.098 9.34438 390.176C8.72398 391.256 8.1438 392.365 7.6039 393.503C7.064 394.642 6.5732 395.807 6.13146 396.998C5.67107 398.234 5.26811 399.483 4.92256 400.744C4.57701 402.006 4.28889 403.278 4.05822 404.561C3.82655 405.844 3.65281 407.135 3.53698 408.435C3.42115 409.735 3.36325 411.041 3.36328 412.352C3.36328 413.662 3.42118 414.956 3.53698 416.233C3.65278 417.51 3.82651 418.767 4.05822 420.005C4.2889 421.243 4.57702 422.458 4.92256 423.652C5.2681 424.845 5.6696 426.014 6.12705 427.158C6.57271 428.263 7.06352 429.332 7.5995 430.365C8.12929 431.387 8.71114 432.382 9.34289 433.348C9.96474 434.294 10.6361 435.209 11.3543 436.088C12.0656 436.962 12.8235 437.798 13.6248 438.594C14.4129 439.376 15.2436 440.115 16.1133 440.809C16.9649 441.489 17.8547 442.121 18.7784 442.703C20.6014 443.853 22.5529 444.793 24.5947 445.507C26.6877 446.24 28.8628 446.724 31.0735 446.95C32.1824 447.062 33.297 447.11 34.4116 447.094C35.5441 447.078 36.6748 447 37.7983 446.859C38.9318 446.717 40.0565 446.515 41.1673 446.252C42.2813 445.988 43.3799 445.665 44.4582 445.284C45.5487 444.898 46.6178 444.457 47.6608 443.961C48.7236 443.456 49.7596 442.898 50.7648 442.291C51.7435 441.693 52.6967 441.051 53.6243 440.366C54.5519 439.682 55.4506 438.952 56.3204 438.177C57.1901 437.402 58.0299 436.584 58.8398 435.725C59.6496 434.865 60.4281 433.963 61.1751 433.019C61.927 432.075 62.6348 431.104 63.2984 430.104C63.962 429.104 64.5834 428.077 65.1626 427.024C65.7417 425.971 66.2777 424.894 66.7705 423.792C67.2633 422.689 67.7124 421.564 68.1178 420.416C68.538 419.228 68.9056 418.029 69.2207 416.82C69.5358 415.611 69.7989 414.394 70.0099 413.168C70.22 411.941 70.378 410.708 70.4841 409.468C70.5901 408.229 70.6431 406.984 70.6431 405.734C70.6421 404.484 70.5891 403.249 70.4841 402.03C70.379 400.81 70.221 399.608 70.0099 398.423C69.7999 397.241 69.5368 396.075 69.2207 394.927C68.9046 393.779 68.537 392.652 68.1178 391.547C67.7104 390.478 67.2613 389.441 66.7705 388.436C66.2728 387.434 65.7344 386.462 65.1552 385.519C64.0087 383.657 62.6754 381.911 61.1751 380.308C60.4389 379.519 59.6613 378.769 58.8457 378.059C58.0424 377.363 57.2014 376.709 56.3263 376.102C55.4596 375.5 54.5595 374.946 53.6302 374.442C52.7016 373.938 51.745 373.485 50.7648 373.086C48.741 372.26 46.6246 371.672 44.4597 371.333C43.3701 371.163 42.2713 371.056 41.1688 371.011C40.0456 370.967 38.9208 370.985 37.7998 371.066" fill="#E4E4E4"/>
<path d="M37.8062 88.5893C36.6762 88.5624 35.5455 88.5985 34.4196 88.6975C33.2983 88.7962 32.1838 88.958 31.0815 89.1822C29.973 89.4091 28.8786 89.6981 27.8038 90.0476C26.7124 90.4016 25.6423 90.8152 24.5983 91.2867C23.5764 91.7478 22.5801 92.2615 21.6136 92.8257C20.6375 93.3955 19.6924 94.0147 18.782 94.6807C17.8569 95.3574 16.9674 96.0795 16.1169 96.8443C15.252 97.6223 14.4211 98.4469 13.624 99.3181C12.8259 100.19 12.0695 101.101 11.3549 102.05C10.6402 102.999 9.96978 103.983 9.34351 105.001C8.72016 106.033 8.13852 107.09 7.59863 108.173C7.05873 109.256 6.56793 110.374 6.12618 111.528C5.66874 112.718 5.26724 113.927 4.92169 115.156C4.57614 116.385 4.28803 117.63 4.05735 118.89C3.82568 120.155 3.65194 121.43 3.53611 122.716C3.42028 124.001 3.36238 125.3 3.36241 126.61C3.36241 127.919 3.42031 129.217 3.53611 130.505C3.65191 131.792 3.82564 133.066 4.05735 134.326C4.28803 135.586 4.57615 136.829 4.92169 138.055C5.26723 139.281 5.66873 140.487 6.12618 141.675C6.57184 142.822 7.06264 143.938 7.59863 145.022C8.13854 146.101 8.7216 147.149 9.34784 148.165C9.97408 149.18 10.6446 150.16 11.3593 151.103C12.0729 152.049 12.8293 152.955 13.6283 153.82C14.4274 154.686 15.2569 155.503 16.1168 156.272C16.9629 157.034 17.848 157.754 18.7687 158.427C19.6792 159.087 20.6243 159.7 21.6002 160.264C22.5669 160.822 23.5632 161.329 24.5849 161.784C25.6292 162.249 26.6994 162.656 27.7905 163.003C29.9375 163.683 32.1574 164.119 34.4062 164.301C36.6582 164.484 38.924 164.417 41.1605 164.101C42.2692 163.944 43.368 163.725 44.4514 163.446C45.5376 163.165 46.6068 162.825 47.654 162.427C48.7135 162.025 49.7497 161.566 50.758 161.053C51.7412 160.552 52.6976 160.003 53.6234 159.407C54.5546 158.807 55.4544 158.161 56.3195 157.473C57.1892 156.78 58.029 156.043 58.8389 155.26C59.6487 154.477 60.4272 153.649 61.1742 152.776C61.9261 151.903 62.6339 150.998 63.2975 150.061C63.9611 149.125 64.5825 148.157 65.1617 147.159C65.7428 146.161 66.2788 145.135 66.7696 144.08C67.2604 143.025 67.7095 141.944 68.1169 140.838C68.537 139.69 68.9047 138.527 69.2198 137.348C69.5349 136.169 69.798 134.976 70.009 133.771C70.2191 132.56 70.3771 131.34 70.4832 130.11C70.5892 128.88 70.6422 127.64 70.6422 126.39C70.6412 125.14 70.5882 123.901 70.4832 122.671C70.3781 121.441 70.2201 120.224 70.009 119.02C69.7989 117.815 69.5359 116.624 69.2198 115.446C68.9037 114.268 68.5361 113.106 68.1169 111.961C67.7095 110.854 67.2604 109.775 66.7696 108.723C66.2788 107.671 65.7404 106.646 65.1543 105.649C64.5751 104.66 63.9537 103.699 63.2901 102.764C62.6265 101.829 61.9212 100.929 61.1742 100.064C60.4321 99.1993 59.6556 98.3776 58.8448 97.5987C58.0339 96.8198 57.1941 96.0875 56.3253 95.4018C55.4608 94.7173 54.5614 94.0761 53.6308 93.4805C52.7048 92.8898 51.7484 92.3463 50.7653 91.8521C49.7568 91.3447 48.7206 90.8921 47.6614 90.4962C46.6139 90.1047 45.5446 89.7715 44.4588 89.498C43.375 89.2253 42.2762 89.0134 41.1678 88.8633C40.0508 88.7125 38.926 88.6239 37.7988 88.5979M37.7988 84.989C42.7452 85.1216 47.5965 86.3516 51.9875 88.5864C56.351 90.8215 60.2187 93.8823 63.3667 97.5915C66.6573 101.457 69.22 105.865 70.9351 110.609C74.6084 120.821 74.6084 131.956 70.9351 142.168C69.2182 146.927 66.6559 151.35 63.3667 155.234C60.2183 158.961 56.3511 162.043 51.986 164.305C47.6008 166.567 42.7503 167.828 37.7974 167.994C32.8139 168.154 27.8599 167.186 23.3201 165.167C18.737 163.11 14.6369 160.148 11.2768 156.467C7.70866 152.569 4.91601 148.052 3.04279 143.148C-1.01426 132.473 -1.01426 120.724 3.04279 110.048C4.91785 105.13 7.70995 100.596 11.2768 96.677C14.6359 92.9753 18.7349 89.9884 23.3201 87.9013C27.8564 85.8529 32.8129 84.8545 37.8062 84.9832L37.7988 84.989Z" fill="#A8E890"/>
<path d="M37.8037 136.693L26.2051 113.022L28.9586 111.266L38.5119 130.711L78.6247 84.5244L81.0529 87.0588L37.8037 136.693Z" fill="#A8E890"/>
<path d="M459.924 604.008L431.211 603.898L440.47 677.394L459.924 677.489V604.008Z" fill="#9E616A"/>
<path d="M464.884 695.983L402.189 695.658V694.882C402.188 693.306 402.345 691.733 402.658 690.187C403.274 687.137 404.503 684.236 406.273 681.655C408.07 679.039 410.374 676.793 413.053 675.046C415.697 673.324 418.663 672.133 421.781 671.542C423.361 671.245 424.967 671.1 426.576 671.109L464.884 671.294V695.983Z" fill="#749F82"/>
<path d="M367.986 603.658L339.355 603.549L348.585 676.946L367.986 677.041V603.658Z" fill="#9E616A"/>
<path d="M372.934 695.505L310.404 695.184V694.407C310.404 692.834 310.561 691.263 310.873 689.72C311.487 686.674 312.712 683.778 314.477 681.199C316.269 678.585 318.567 676.342 321.242 674.596C323.878 672.877 326.837 671.689 329.947 671.101C331.523 670.803 333.126 670.658 334.731 670.668L372.934 670.851V695.505Z" fill="#749F82"/>
<path d="M366.77 303.261L318.625 479.269L336.247 647.986L375.268 649.04L366.772 496.698L415.45 420.673L426.007 650.078L461.402 647.625L481.092 450.384C487.78 434.983 492.684 418.896 495.714 402.425C498.095 389.496 499.252 376.379 499.173 363.241C499.132 354.397 498.438 345.567 497.096 336.82C496.617 333.561 495.968 330.328 495.151 327.133L480.796 312.877L366.77 303.261Z" fill="#2F2E41"/>
<path d="M430.559 332.698C422.462 332.698 414.865 332.443 407.976 331.941C400.939 331.468 393.939 330.565 387.017 329.238C381.123 328.16 375.383 326.39 369.922 323.966C365.525 322.106 361.703 319.15 358.834 315.394L358.506 314.926L371.665 231.03L385.856 136.7C386.79 130.457 390.035 124.769 394.973 120.718C399.91 116.668 406.196 114.537 412.633 114.731L457.077 116.066C460.41 116.166 463.688 116.92 466.718 118.285C469.747 119.649 472.466 121.595 474.714 124.008C476.961 126.421 478.691 129.251 479.802 132.331C480.912 135.411 481.379 138.678 481.177 141.939L475.342 235.752L496.863 328.288L495.339 328.496C494.726 328.576 492.364 328.881 488.664 329.289C483.829 329.822 478.891 330.301 473.989 330.716C467.053 331.301 460.266 331.762 453.817 332.085C445.638 332.493 437.798 332.691 430.559 332.698Z" fill="#749F82"/>
<path d="M405.897 98.0616C405.885 98.0617 405.873 98.0617 405.861 98.0616C404.929 98.061 404.006 97.8806 403.145 97.5305C402.283 97.1804 401.501 96.6676 400.842 96.0213C400.183 95.3751 399.661 94.608 399.304 93.7639C398.948 92.9198 398.765 92.0152 398.766 91.1018V52.286C398.759 45.3318 400.179 38.4472 402.943 32.0415C408.355 19.5412 418.482 9.56876 431.214 4.2026C439.267 0.819112 448.051 -0.555182 456.778 0.202768C465.506 0.960719 473.906 3.82724 481.226 8.54568C488.545 13.2641 494.556 19.6871 498.719 27.2396C502.883 34.7921 505.07 43.2382 505.083 51.8216V90.6966C505.084 91.6321 504.893 92.5583 504.521 93.4199C503.791 95.1005 502.427 96.4401 500.713 97.1587C499.834 97.5264 498.888 97.7172 497.932 97.7198L405.891 98.0616H405.897Z" fill="#2F2E41"/>
<path d="M475.927 38.974C479.634 45.6074 481.252 53.1683 480.576 60.7018C479.899 68.2353 476.959 75.4035 472.126 81.301C467.293 87.1984 460.785 91.5607 453.423 93.8368C446.061 96.1129 438.175 96.2008 430.762 94.0893C425.853 92.7075 421.273 90.3852 417.287 87.2571C413.301 84.1289 409.989 80.257 407.541 75.8657C403.843 69.2351 402.231 61.6803 402.909 54.1537C403.587 46.6271 406.525 39.4657 411.353 33.5725C416.18 27.6792 422.68 23.318 430.034 21.0387C437.388 18.7594 445.266 18.6641 452.675 20.7648C457.588 22.1415 462.174 24.4601 466.165 27.5862C470.156 30.7122 473.475 34.5835 475.927 38.9755V38.974Z" fill="#9E616A"/>
<path d="M386.199 55.4452C386.194 49.9452 387.318 44.5003 389.503 39.4342C393.782 29.5495 401.791 21.6643 411.86 17.4227C417.026 15.2544 422.584 14.1262 428.204 14.1051L436.135 14.0661C436.224 14.0656 436.313 14.0654 436.402 14.0654C441.894 14.0687 447.331 15.1316 452.403 17.1934C457.475 19.2551 462.084 22.2754 465.964 26.0817C469.845 29.888 472.922 34.4058 475.021 39.3771C477.119 44.3485 478.198 49.6761 478.194 55.0557V55.8332L461.417 55.8995L455.697 40.2433L454.552 55.9298L445.887 55.9673L443.002 48.0685L442.424 55.9774L386.207 56.224L386.199 55.4452Z" fill="#2F2E41"/>
<path d="M318.657 137.101C316.075 137.72 313.661 138.879 311.58 140.499C309.954 141.759 308.564 143.286 307.471 145.012C305.315 148.429 304.366 152.444 304.768 156.441C304.971 158.46 305.53 160.429 306.42 162.26C307.518 164.543 309.097 166.572 311.054 168.213C313.01 169.854 315.3 171.07 317.772 171.78C320.244 172.49 322.841 172.679 325.393 172.333C327.944 171.987 330.392 171.115 332.574 169.775C332.735 169.673 332.894 169.57 333.052 169.465C333.21 169.36 333.365 169.253 333.517 169.144C333.67 169.035 333.82 168.924 333.968 168.812C334.116 168.699 334.262 168.585 334.408 168.469L426.986 200.746C429.834 201.738 432.935 201.797 435.821 200.914C438.706 200.032 441.221 198.254 442.987 195.85L464.935 166.081L438.399 148.577L424.474 164.073L339.75 147.563C339.658 147.348 339.562 147.134 339.463 146.921C339.364 146.708 339.261 146.496 339.153 146.285C339.043 146.075 338.931 145.865 338.814 145.657C338.698 145.449 338.576 145.242 338.446 145.037C336.425 141.838 333.422 139.347 329.867 137.922C326.312 136.496 322.388 136.209 318.657 137.101Z" fill="#9E616A"/>
<path d="M425.967 154.3C428.737 150.915 432.608 146.519 436.542 142.159C440.476 137.799 444.469 133.477 447.48 130.245C450.491 127.012 452.518 124.87 452.518 124.87C455.297 120.753 459.446 117.705 464.259 116.244C469.073 114.784 474.254 115.001 478.922 116.858C483.591 118.715 487.459 122.098 489.87 126.432C492.281 130.767 493.087 135.785 492.149 140.635C491.613 143.427 490.507 146.084 488.895 148.446C488.895 148.446 485.875 152.318 481.316 158.097C476.757 163.875 470.657 171.568 464.504 179.216C458.352 186.864 452.139 194.473 447.348 200.089C442.558 205.705 439.187 209.333 438.712 209.022L422.002 160.366C421.527 160.055 423.198 157.686 425.967 154.3Z" fill="#749F82"/>
<path d="M435.885 96.8385C435.622 98.0933 435.724 99.3952 436.179 100.596C436.408 101.211 436.723 101.791 437.116 102.32C437.452 102.77 437.841 103.18 438.276 103.541C439.563 104.607 441.196 105.189 442.882 105.181C442.987 105.181 443.092 105.178 443.197 105.173C443.302 105.168 443.407 105.161 443.512 105.151C443.618 105.143 443.724 105.131 443.829 105.117C443.934 105.102 444.039 105.086 444.145 105.068L450.1 104.007L458.302 86.8424V102.565L485.374 97.7905V31.0708L439.988 31.2843L441.11 32.5608C444.835 36.8442 447.28 42.051 448.178 47.6083C449.059 53.237 448.948 58.9719 447.851 64.5641C446.785 70.2225 445.167 75.7677 443.019 81.1231C441.141 85.8676 438.986 90.5021 436.564 95.0036C436.251 95.5811 436.022 96.1988 435.885 96.8385Z" fill="#2F2E41"/>
<path d="M121.519 698H682.528C682.918 698 683.293 697.848 683.569 697.578C683.845 697.307 684 696.94 684 696.558C684 696.175 683.845 695.808 683.569 695.538C683.293 695.267 682.918 695.115 682.528 695.115H121.519C121.129 695.115 120.754 695.267 120.478 695.538C120.202 695.808 120.047 696.175 120.047 696.558C120.047 696.94 120.202 697.307 120.478 697.578C120.754 697.848 121.129 698 121.519 698Z" fill="#CACACA"/>
</g>
<defs>
<clipPath id="clip0_381_97">
<rect width="684" height="698" fill="white"/>
</clipPath>
</defs>
</svg>
