<svg width="283" height="228" viewBox="0 0 283 228" fill="none" xmlns="http://www.w3.org/2000/svg">
<g clip-path="url(#clip0_141_2)">
<path d="M67.9429 123.618C65.6843 111.254 69.2402 97.1884 79.1237 89.7046C78.5635 103.371 82.7475 116.799 90.9353 127.613C94.1078 131.772 98.0598 136.06 97.937 141.334C97.8607 144.615 96.1257 147.672 93.8392 149.975C91.5526 152.278 88.736 153.938 85.953 155.573L85.5199 156.262C77.3619 146.85 70.2015 135.982 67.9429 123.618Z" fill="#F0F0F0"/>
<path d="M79.3038 89.8938C75.1514 99.3989 74.0328 110.001 76.1068 120.193C76.5152 122.395 77.2605 124.518 78.3151 126.483C79.403 128.363 80.9632 129.911 82.8338 130.966C84.5586 131.985 86.4382 132.824 87.8907 134.254C88.6236 134.997 89.1945 135.891 89.5661 136.876C89.9376 137.861 90.1014 138.915 90.0467 139.97C89.9771 142.6 88.9876 145.048 87.9386 147.408C86.7738 150.028 85.5234 152.73 85.599 155.676C85.6081 156.033 85.0661 156.027 85.057 155.67C84.9256 150.545 88.548 146.43 89.3552 141.512C89.7318 139.218 89.4347 136.793 87.8575 135.014C86.4782 133.459 84.5406 132.593 82.7855 131.576C80.946 130.574 79.3742 129.127 78.2076 127.361C77.0585 125.457 76.2345 123.368 75.771 121.181C74.6505 116.276 74.2912 111.221 74.706 106.201C75.1484 100.47 76.5462 94.8583 78.8387 89.609C78.9807 89.2841 79.4449 89.571 79.3038 89.8937L79.3038 89.8938Z" fill="white"/>
<path d="M75.2504 116.951C73.5312 117.075 71.825 116.57 70.4365 115.525C69.048 114.481 68.0675 112.966 67.6702 111.251C67.591 110.904 68.115 110.762 68.1943 111.109C68.5614 112.707 69.4748 114.118 70.7698 115.088C72.0647 116.058 73.6559 116.522 75.2561 116.397C75.6039 116.37 75.5962 116.925 75.2504 116.951Z" fill="white"/>
<path d="M81.8929 130.567C84.2267 127.867 85.48 124.368 85.403 120.765C85.3951 120.408 85.9371 120.414 85.945 120.771C86.0183 124.52 84.7068 128.159 82.2721 130.963C82.0399 131.23 81.6619 130.832 81.8929 130.567V130.567Z" fill="white"/>
<path d="M75.7836 100.814C76.4586 100.908 77.1457 100.829 77.7834 100.584C78.4211 100.339 78.9893 99.9363 79.4371 99.4113C79.6659 99.1414 80.0437 99.5392 79.8163 99.8074C79.319 100.385 78.6909 100.829 77.9869 101.102C77.2829 101.374 76.5245 101.465 75.7779 101.369C75.7068 101.365 75.6395 101.335 75.5897 101.283C75.5399 101.231 75.5113 101.161 75.5098 101.089C75.5109 101.015 75.5403 100.945 75.5915 100.894C75.6428 100.842 75.7118 100.814 75.7836 100.814H75.7836Z" fill="white"/>
<path d="M119.542 99.9314C119.403 100.104 119.265 100.277 119.128 100.454C117.282 102.786 115.624 105.267 114.171 107.873C114.056 108.073 113.941 108.277 113.832 108.48C110.396 114.797 108.137 121.712 107.169 128.873C106.787 131.723 106.617 134.599 106.661 137.475C106.722 141.447 107.097 145.749 105.907 149.402C105.787 149.785 105.644 150.16 105.479 150.524L86.3755 156.749C86.3252 156.741 86.276 156.737 86.2254 156.729L85.4738 157.014C85.4614 156.865 85.4517 156.711 85.4393 156.563C85.4317 156.477 85.4284 156.39 85.4209 156.304C85.4172 156.246 85.4137 156.189 85.4072 156.137C85.4059 156.117 85.4048 156.098 85.4049 156.083C85.3983 156.032 85.3976 155.983 85.3925 155.935C85.3357 155.075 85.2831 154.213 85.2395 153.348C85.2381 153.344 85.2381 153.344 85.2409 153.338C84.9131 146.752 85.1198 140.08 86.3101 133.653C86.346 133.459 86.3803 133.262 86.4249 133.065C86.9771 130.171 87.7597 127.328 88.7649 124.564C89.32 123.053 89.9496 121.571 90.6512 120.124C92.4712 116.39 94.854 112.973 97.7124 109.996C103.411 104.063 110.902 100.061 118.928 99.9349C119.134 99.9318 119.335 99.93 119.542 99.9314Z" fill="#F0F0F0"/>
<path d="M119.576 100.193C110.665 105.226 103.531 113.002 99.1877 122.417C98.2174 124.427 97.5629 126.581 97.2483 128.799C97.0102 130.97 97.3448 133.167 98.2174 135.161C98.9945 137.037 100.002 138.864 100.32 140.9C100.467 141.945 100.397 143.01 100.114 144.026C99.8306 145.041 99.3408 145.984 98.6765 146.792C97.0725 148.849 94.8413 150.194 92.6147 151.433C90.1425 152.807 87.5533 154.195 85.8797 156.593C85.677 156.884 85.248 156.545 85.4504 156.255C88.3622 152.082 93.6773 151.027 97.2164 147.597C98.8678 145.997 100.058 143.878 99.8454 141.487C99.6597 139.396 98.6226 137.511 97.8197 135.618C96.9405 133.686 96.5374 131.563 96.6455 129.434C96.8486 127.206 97.4209 125.03 98.3378 122.999C100.331 118.393 103.019 114.135 106.305 110.383C110.032 106.079 114.452 102.459 119.372 99.6797C119.677 99.5078 119.878 100.023 119.576 100.193Z" fill="white"/>
<path d="M100.412 119.301C98.9664 118.341 97.9015 116.887 97.4075 115.198C96.9134 113.51 97.0224 111.696 97.7149 110.082C97.8561 109.756 98.3582 109.965 98.2168 110.292C97.5692 111.794 97.4679 113.483 97.9311 115.054C98.3943 116.626 99.3915 117.976 100.743 118.862C101.036 119.055 100.704 119.493 100.412 119.301H100.412Z" fill="white"/>
<path d="M97.7011 134.263C101.153 133.545 104.214 131.522 106.273 128.598C106.477 128.308 106.906 128.647 106.703 128.937C104.554 131.975 101.365 134.073 97.7707 134.813C97.4281 134.883 97.3603 134.333 97.7011 134.263V134.263Z" fill="white"/>
<path d="M110.337 106.745C110.821 107.236 111.416 107.596 112.069 107.793C112.723 107.99 113.414 108.018 114.08 107.875C114.422 107.8 114.489 108.35 114.15 108.424C113.413 108.579 112.65 108.547 111.927 108.331C111.205 108.115 110.546 107.721 110.006 107.184C109.951 107.138 109.916 107.072 109.907 107C109.897 106.928 109.916 106.854 109.957 106.795C110.001 106.738 110.066 106.7 110.137 106.69C110.208 106.681 110.28 106.701 110.337 106.745V106.745Z" fill="white"/>
<path d="M149.549 32.3216C149.613 32.6093 149.654 32.9018 149.673 33.1962L172.071 46.412L177.515 43.2065L183.319 50.9776L174.22 57.6103C173.485 58.1462 172.6 58.4237 171.698 58.4012C170.795 58.3787 169.925 58.0574 169.216 57.4856L146.12 38.8497C145.078 39.2443 143.943 39.305 142.866 39.0237C141.789 38.7424 140.821 38.1325 140.092 37.275C139.362 36.4175 138.905 35.3531 138.781 34.2234C138.657 33.0937 138.873 31.9523 139.399 30.9508C139.925 29.9494 140.736 29.1355 141.725 28.6173C142.715 28.0992 143.835 27.9013 144.937 28.0501C146.038 28.1989 147.07 28.6873 147.894 29.4504C148.718 30.2134 149.295 31.2149 149.549 32.3216V32.3216Z" fill="#FFB6B6"/>
<path d="M172.381 44.9527C172.452 44.6156 172.594 44.2982 172.796 44.022C172.997 43.7459 173.255 43.5175 173.551 43.3526L183.892 37.59C185.269 36.527 187.002 36.0659 188.711 36.3079C190.42 36.5498 191.965 37.4751 193.008 38.8808C194.051 40.2865 194.506 42.0578 194.274 43.8063C194.042 45.5548 193.141 47.1378 191.77 48.2081L183.482 56.8195C183.246 57.0652 182.96 57.256 182.645 57.3787C182.33 57.5014 181.993 57.5532 181.656 57.5305C181.32 57.5079 180.992 57.4113 180.695 57.2475C180.399 57.0836 180.14 56.8563 179.937 56.581L172.801 46.9045C172.598 46.6293 172.455 46.3124 172.383 45.9755C172.31 45.6387 172.31 45.2898 172.381 44.9527Z" fill="#3F3D56"/>
<path d="M190.856 11.4512C192.344 6.60149 195.727 2.15353 200.406 0.514065C205.085 -1.12539 211.937 1.37204 215.455 4.95788C221.89 11.5171 223.46 34.0504 219.039 41.1712C218.16 41.1236 215.125 41.0884 214.235 41.0543L212.976 36.7624V41.012C206.03 40.7924 198.798 40.9299 191.562 41.0721C190.913 36.0305 189.368 16.3009 190.856 11.4512Z" fill="#2F2E41"/>
<path d="M188.864 215.016H182.529L179.515 190.02L188.866 190.02L188.864 215.016Z" fill="#FFB6B6"/>
<path d="M244.329 210.986L238.199 212.62L229.117 189.21L238.166 186.798L244.329 210.986Z" fill="#FFB6B6"/>
<path d="M209.413 61.4924L210.849 65.3101L210.562 69.1279L182.465 79.0816L183.859 62.3734L187.017 58.5552L209.413 61.4924Z" fill="#FFB6B6"/>
<path d="M200.529 27.1356C206.072 27.1356 210.565 22.5402 210.565 16.8715C210.565 11.2028 206.072 6.60742 200.529 6.60742C194.987 6.60742 190.494 11.2028 190.494 16.8715C190.494 22.5402 194.987 27.1356 200.529 27.1356Z" fill="#FFB7B7"/>
<path d="M193.634 3.50609C195.562 2.30378 197.771 1.65339 200.029 1.62295C202.287 1.5925 204.512 2.1831 206.47 3.333C208.429 4.48291 210.049 6.14988 211.163 8.15961C212.276 10.1693 212.84 12.448 212.798 14.7574C207.327 16.1874 201.498 16.7855 195.321 15.1018L193.909 11.567L193.076 15.1044C191.186 16.4641 189.362 16.4617 187.604 15.0971C187.529 12.7942 188.047 10.5117 189.105 8.47764C190.163 6.44359 191.725 4.72929 193.634 3.50609Z" fill="#2F2E41"/>
<path d="M191.699 227.321H187.203L186.4 222.98L184.345 227.321H172.421C171.849 227.321 171.293 227.134 170.832 226.788C170.372 226.441 170.032 225.953 169.862 225.395C169.692 224.837 169.7 224.238 169.887 223.685C170.073 223.133 170.427 222.656 170.898 222.323L180.42 215.597V211.208L190.436 211.819L191.699 227.321Z" fill="#2F2E41"/>
<path d="M250.663 222.014L246.312 223.174L244.465 219.18L243.547 223.911L232.008 226.988C231.455 227.135 230.87 227.098 230.339 226.881C229.808 226.665 229.359 226.281 229.057 225.784C228.755 225.288 228.615 224.706 228.659 224.123C228.703 223.54 228.929 222.987 229.302 222.544L236.857 213.579L235.775 209.332L245.618 207.339L250.663 222.014Z" fill="#2F2E41"/>
<path d="M243.552 195.267L224.98 156.225L219.15 108.706C223.17 101.071 215.704 85.5336 215.704 85.5336V79.0103L186.785 84.5903V84.5904C180.87 101.091 178.002 118.571 178.326 136.143L179.492 199.309H179.126C178.519 199.309 177.938 199.555 177.509 199.994C177.08 200.432 176.839 201.027 176.839 201.648C176.839 202.268 177.08 202.863 177.509 203.302C177.938 203.741 178.519 203.987 179.126 203.987H190.562C191.168 203.987 191.75 203.741 192.179 203.302C192.608 202.863 192.849 202.268 192.849 201.648C192.849 201.027 192.608 200.432 192.179 199.994C191.75 199.555 191.168 199.309 190.562 199.309H190.267L198.476 118.95L208.022 158.605L231.09 195.117C230.502 195.164 229.954 195.442 229.562 195.893C229.17 196.344 228.964 196.933 228.988 197.537C229.011 198.14 229.263 198.71 229.689 199.128C230.115 199.545 230.683 199.778 231.273 199.776H242.709C243.241 199.777 243.756 199.588 244.166 199.241C244.576 198.895 244.855 198.413 244.955 197.879C245.055 197.344 244.97 196.791 244.713 196.314C244.457 195.837 244.047 195.467 243.552 195.267H243.552Z" fill="#2F2E41"/>
<path d="M218.319 89.5329H218.319C218.224 89.1512 218.013 88.81 217.717 88.5583C217.421 88.3066 217.054 88.1573 216.67 88.1317C216.289 83.6743 213.77 55.0874 213.674 54.2487L213.67 54.2132L212.941 38.279C212.915 37.7003 212.681 37.1518 212.284 36.7384C211.887 36.325 211.355 36.0756 210.79 36.0378L206.938 35.7802C206.885 35.7784 206.835 35.7557 206.798 35.7168C206.762 35.6779 206.741 35.626 206.741 35.5719C206.741 35.1368 206.657 34.706 206.495 34.304C206.332 33.9021 206.093 33.5368 205.792 33.2292C205.492 32.9215 205.134 32.6775 204.741 32.511C204.348 32.3445 203.927 32.2588 203.502 32.2588H192.098C191.359 32.2591 190.646 32.5351 190.092 33.0351C189.538 33.5351 189.182 34.2245 189.09 34.9742C189.085 35.0258 189.061 35.0735 189.023 35.1079C188.985 35.1423 188.936 35.1607 188.885 35.1595L188.883 35.1595C187.588 35.1322 186.325 35.5809 185.325 36.4242C184.325 37.2676 183.654 38.4496 183.433 39.7559C181.874 49.034 178.749 70.0919 180.294 81.7988C180.832 85.8742 180.588 92.0036 180.384 95.4135C180.364 95.743 180.408 96.0734 180.512 96.3856C180.617 96.6979 180.781 96.9859 180.995 97.2333C180.54 97.3674 180.154 97.6769 179.918 98.0965C179.682 98.5161 179.615 99.013 179.73 99.4826H179.73C179.848 99.9639 180.149 100.377 180.566 100.632C180.982 100.886 181.481 100.961 181.951 100.84L216.992 91.805C217.462 91.6837 217.867 91.3762 218.115 90.9501C218.364 90.524 218.437 90.0142 218.319 89.5329Z" fill="#3F3D56"/>
<path d="M160.406 156.523C160.399 155.476 160.031 154.466 159.366 153.671C158.7 152.876 157.781 152.348 156.771 152.18L94.646 141.746C94.0502 141.645 93.4405 141.673 92.8559 141.827L78.2963 145.678L69.9426 147.889L54.526 151.966C53.5954 152.213 52.7712 152.769 52.1829 153.547C51.5945 154.325 51.2752 155.28 51.2749 156.264V222.847C51.2795 223.862 51.6225 224.845 52.2471 225.634C52.8717 226.423 53.7406 226.97 54.7104 227.186L117.99 226.453C118.287 226.518 118.59 226.55 118.894 226.549C119.336 226.55 119.777 226.481 120.199 226.345L157.795 227.302C158.682 227.019 159.456 226.451 160.003 225.682C160.55 224.913 160.839 223.984 160.829 223.034L160.406 156.523Z" fill="white"/>
<path d="M160.406 156.523C160.399 155.476 160.031 154.466 159.366 153.671C158.7 152.876 157.781 152.348 156.771 152.18L94.646 141.746C94.0502 141.645 93.4405 141.673 92.8559 141.827L78.2963 145.678L69.9426 147.889L54.526 151.966C53.5954 152.213 52.7712 152.769 52.1829 153.547C51.5945 154.325 51.2752 155.28 51.2749 156.264V222.847C51.2795 223.862 51.6225 224.845 52.2471 225.634C52.8717 226.423 53.7406 226.97 54.7104 227.186L117.99 226.453C118.287 226.518 118.59 226.55 118.894 226.549C119.336 226.55 119.777 226.481 120.199 226.345L157.795 227.302C158.682 227.019 159.456 226.451 160.003 225.682C160.55 224.913 160.839 223.984 160.829 223.034L160.406 156.523ZM157.469 226.244L119.874 227.159C119.337 227.33 118.767 227.358 118.217 227.24L54.9347 226.102C54.2076 225.94 53.5562 225.529 53.0881 224.937C52.62 224.345 52.3631 223.608 52.3598 222.847V156.264C52.3603 155.582 52.5651 154.917 52.9466 154.358C53.3281 153.799 53.868 153.373 54.4935 153.138C54.5928 153.1 54.6942 153.068 54.7972 153.042L71.107 148.729L80.7519 146.177L93.1271 142.903C93.3925 142.831 93.6661 142.795 93.9407 142.796C94.1176 142.796 94.2942 142.811 94.4687 142.841L156.594 153.275C157.094 153.359 157.568 153.561 157.979 153.864C158.389 154.168 158.725 154.565 158.959 155.025C159.194 155.49 159.318 156.006 159.321 156.53L159.744 223.041C159.752 223.754 159.535 224.451 159.125 225.028C158.715 225.605 158.135 226.031 157.469 226.244Z" fill="#CCCCCC"/>
<path d="M158.96 155.025C158.917 155.053 158.871 155.074 158.822 155.087L140.549 160.14L134.86 161.712L118.68 166.184C118.634 166.196 118.587 166.202 118.539 166.202C118.507 166.202 118.474 166.199 118.442 166.195L53.2026 154.03L52.9856 153.989C52.8443 153.962 52.7192 153.878 52.6377 153.757C52.5563 153.636 52.525 153.487 52.5508 153.342C52.5766 153.197 52.6574 153.069 52.7755 152.985C52.8935 152.901 53.0393 152.868 53.1809 152.894L54.4937 153.138L118.518 165.078L132.462 161.224L140.263 159.067L158.254 154.092L158.54 154.015C158.664 153.981 158.795 153.994 158.91 154.049C159.026 154.104 159.119 154.2 159.173 154.318C159.187 154.346 159.198 154.376 159.205 154.407C159.235 154.523 159.227 154.646 159.183 154.758C159.139 154.869 159.06 154.963 158.96 155.025Z" fill="#CCCCCC"/>
<path d="M119.082 226.678C118.785 226.678 118.542 226.433 118.54 228L117.997 167.524C117.994 165.346 118.235 165.096 118.535 165.093H118.54C118.837 165.093 119.079 165.338 119.082 167.514L119.624 227.99C119.627 226.425 119.386 226.675 119.087 226.678H119.082Z" fill="#CCCCCC"/>
<path d="M140.702 227.38L134.86 227.444L132.462 161.224L71.2841 148.774C71.2241 148.763 71.1649 148.748 71.1069 148.729C70.6369 148.592 70.2263 148.296 69.9424 147.89L78.2962 145.678L80.7517 146.177L138.802 157.987C139.107 158.049 139.395 158.178 139.648 158.364C139.9 158.55 140.11 158.79 140.263 159.067C140.443 159.389 140.698 226.996 140.702 227.38Z" fill="#CCCCCC"/>
<path d="M187.498 35.3186C187.494 34.53 187.216 33.7687 186.714 33.1696C186.213 32.5706 185.52 32.1725 184.759 32.0459L137.938 24.182C137.489 24.106 137.03 24.1269 136.589 24.2433L125.616 27.1453L119.32 28.8123L107.702 31.8842C107 32.0706 106.379 32.4897 105.936 33.0759C105.492 33.6621 105.252 34.3823 105.251 35.1235V74.3734C105.255 75.1384 105.513 75.8793 105.984 76.4738C106.455 77.0683 107.11 77.4808 107.841 77.6433L155.531 88.0217C155.755 88.0709 155.984 88.0952 156.213 88.0942C156.546 88.0948 156.878 88.0431 157.196 87.9408L185.531 78.789C186.199 78.5756 186.783 78.1474 187.195 77.5679C187.607 76.9884 187.825 76.2885 187.817 75.5721L187.498 35.3186Z" fill="white"/>
<path d="M137.408 27.0642C137.374 27.0642 137.34 27.0687 137.307 27.0776L108.419 34.7185C108.332 34.7417 108.254 34.794 108.199 34.8672C108.143 34.9403 108.113 35.0303 108.113 35.1228V74.3721C108.114 74.4677 108.146 74.5603 108.205 74.6346C108.263 74.7089 108.345 74.7604 108.437 74.7807L156.127 85.159C156.196 85.1738 156.268 85.1702 156.335 85.1486L184.67 75.9971C184.753 75.9704 184.826 75.9169 184.878 75.8445C184.929 75.7721 184.956 75.6847 184.955 75.5952L184.637 35.3419C184.637 35.2434 184.602 35.1484 184.539 35.0736C184.477 34.9988 184.39 34.9491 184.295 34.9333L137.474 27.0696C137.452 27.0661 137.43 27.0643 137.408 27.0642Z" fill="#425F57"/>
<path d="M187.498 35.3186C187.494 34.53 187.216 33.7687 186.714 33.1696C186.213 32.5706 185.52 32.1725 184.759 32.0459L137.938 24.182C137.489 24.106 137.03 24.1269 136.589 24.2433L125.616 27.1453L119.32 28.8123L107.702 31.8842C107 32.0706 106.379 32.4897 105.936 33.0759C105.492 33.6621 105.252 34.3823 105.251 35.1235V74.3734C105.255 75.1384 105.513 75.8793 105.984 76.4738C106.455 77.0683 107.11 77.4808 107.841 77.6433L155.531 88.0217C155.755 88.0709 155.984 88.0952 156.213 88.0942C156.546 88.0948 156.878 88.0431 157.196 87.9408L185.531 78.789C186.199 78.5756 186.783 78.1474 187.195 77.5679C187.607 76.9884 187.825 76.2885 187.817 75.5721L187.498 35.3186ZM185.285 77.9917L156.951 87.1436C156.547 87.2723 156.117 87.2934 155.703 87.2049L108.01 76.8265C107.462 76.7043 106.971 76.3947 106.618 75.9487C106.265 75.5027 106.072 74.9471 106.069 74.3734V35.1235C106.069 34.6098 106.224 34.1086 106.511 33.6874C106.799 33.2662 107.206 32.9453 107.677 32.7679C107.752 32.7392 107.828 32.715 107.906 32.6955L120.198 29.4451L127.467 27.5216L136.793 25.0546C136.993 25 137.2 24.9728 137.407 24.9737C137.54 24.9736 137.673 24.9848 137.805 25.0072L184.626 32.8711C185.003 32.9343 185.36 33.0864 185.669 33.3152C185.978 33.5441 186.232 33.8435 186.408 34.1897C186.585 34.5406 186.678 34.9294 186.681 35.3242L187 75.5777C187.006 76.1151 186.842 76.6401 186.533 77.075C186.224 77.5098 185.787 77.8313 185.285 77.9918V77.9917Z" fill="#3F3D56"/>
<path d="M186.408 34.1896C186.377 34.2109 186.342 34.2269 186.305 34.237L172.533 38.0449L168.246 39.2296L156.052 42.5998C156.017 42.6086 155.981 42.6133 155.946 42.6138C155.921 42.6133 155.896 42.6115 155.872 42.6082L106.704 33.4397L106.541 33.409C106.434 33.3886 106.34 33.3259 106.278 33.2345C106.217 33.1432 106.193 33.0306 106.213 32.9215C106.232 32.8124 106.293 32.7156 106.382 32.6523C106.471 32.5891 106.581 32.5645 106.688 32.5839L107.677 32.7679L155.929 41.7664L166.439 38.8616L172.318 37.2364L185.877 33.4871L186.092 33.4285C186.185 33.4034 186.284 33.4126 186.371 33.4543C186.458 33.4961 186.528 33.5679 186.569 33.6571C186.58 33.6784 186.588 33.7009 186.594 33.724C186.616 33.8117 186.61 33.9044 186.577 33.9883C186.543 34.0723 186.484 34.1429 186.408 34.1896Z" fill="#3F3D56"/>
<path d="M156.355 88.1917C156.247 88.1918 156.144 88.1482 156.067 88.0706C155.99 87.993 155.947 87.8877 155.946 87.7774L155.537 42.1995C155.536 42.0887 155.578 41.9819 155.654 41.9028C155.73 41.8237 155.834 41.7786 155.942 41.7776H155.946C156.054 41.7776 156.157 41.8211 156.234 41.8987C156.31 41.9763 156.354 42.0817 156.355 42.1919L156.764 87.7698C156.765 87.8807 156.722 87.9874 156.646 88.0666C156.57 88.1457 156.467 88.1907 156.358 88.1917H156.355Z" fill="#3F3D56"/>
<path d="M172.533 82.6471L168.246 83.8318L166.439 38.8617L120.332 29.4785C120.286 29.4703 120.242 29.4591 120.198 29.445C119.844 29.3419 119.534 29.1188 119.32 28.8122L125.616 27.1453L127.467 27.5216L171.216 36.4225C171.446 36.469 171.664 36.5658 171.854 36.7063C172.044 36.8468 172.202 37.0277 172.317 37.2365C172.454 37.479 172.53 82.3572 172.533 82.6471Z" fill="#3F3D56"/>
<path d="M170.612 57.0069C170.831 57.1987 171.035 57.4079 171.223 57.6325L196.905 54.5647L199.403 48.6694L208.595 51.3622L205.164 62.238C204.887 63.1166 204.339 63.8796 203.602 64.4124C202.865 64.9452 201.978 65.219 201.076 65.1928L171.67 64.3377C171.064 65.2906 170.189 66.0322 169.161 66.4639C168.132 66.8955 167 66.9967 165.914 66.7541C164.829 66.5115 163.841 65.9365 163.082 65.1056C162.324 64.2748 161.83 63.2274 161.668 62.1028C161.506 60.9782 161.682 59.8297 162.173 58.8101C162.665 57.7905 163.448 56.9481 164.419 56.3949C165.39 55.8417 166.503 55.6039 167.609 55.7132C168.715 55.8226 169.763 56.2738 170.612 57.0069Z" fill="#FFB6B6"/>
<path d="M196.303 53.2041C196.164 52.8903 196.092 52.5493 196.093 52.2044C196.094 51.8596 196.167 51.519 196.309 51.2059L201.243 40.27C201.728 38.5766 202.85 37.1489 204.362 36.3C205.874 35.4511 207.654 35.2503 209.311 35.7416C210.968 36.2328 212.367 37.3761 213.201 38.9206C214.035 40.4652 214.236 42.285 213.76 43.981L212.135 55.9496C212.088 56.2912 211.971 56.6185 211.789 56.9093C211.608 57.2001 211.368 57.4475 211.085 57.6347C210.801 57.8219 210.482 57.9445 210.149 57.9941C209.815 58.0438 209.475 58.0193 209.151 57.9223L197.779 54.5137C197.456 54.4169 197.156 54.2498 196.902 54.0237C196.647 53.7977 196.443 53.5182 196.303 53.2041Z" fill="#3F3D56"/>
<path d="M282.455 227.867H0.544536C0.400358 227.867 0.262225 227.808 0.160423 227.703C0.0586214 227.599 0.00146484 227.457 0.00146484 227.31C0.00146484 227.163 0.0586214 227.021 0.160423 226.917C0.262225 226.812 0.400358 226.753 0.544536 226.753H282.455C282.6 226.753 282.738 226.812 282.84 226.916C282.943 227.021 283 227.162 283 227.31C283 227.458 282.943 227.599 282.84 227.704C282.738 227.808 282.6 227.867 282.455 227.867Z" fill="#749F82"/>
<path d="M54.943 168.675C63.99 168.675 71.324 161.173 71.324 151.92C71.324 142.667 63.99 135.166 54.943 135.166C45.896 135.166 38.562 142.667 38.562 151.92C38.562 161.173 45.896 168.675 54.943 168.675Z" fill="#425F57"/>
<path d="M52.7084 160.64C52.4256 160.64 52.1466 160.573 51.8936 160.443C51.6406 160.314 51.4205 160.126 51.2509 159.894L46.7819 153.8C46.4919 153.404 46.3675 152.907 46.4358 152.418C46.5042 151.929 46.7598 151.487 47.1464 151.191C47.533 150.894 48.019 150.767 48.4974 150.837C48.9757 150.907 49.4074 151.168 49.6973 151.564L52.6211 155.551L60.1304 144.03C60.2628 143.825 60.4333 143.65 60.6322 143.513C60.8311 143.376 61.0545 143.28 61.2896 143.232C61.5246 143.183 61.7667 143.183 62.0019 143.23C62.2372 143.278 62.461 143.372 62.6605 143.508C62.86 143.644 63.0313 143.819 63.1645 144.023C63.2978 144.227 63.3904 144.456 63.4371 144.696C63.4837 144.937 63.4835 145.184 63.4364 145.425C63.3893 145.665 63.2963 145.894 63.1627 146.097L54.2247 159.81C54.0631 160.058 53.8456 160.263 53.5906 160.407C53.3356 160.552 53.0505 160.631 52.7591 160.64C52.7423 160.64 52.7253 160.64 52.7084 160.64Z" fill="white"/>
<path d="M124.692 62.9275C124.641 62.9274 124.59 62.9216 124.541 62.9101L110.36 59.6351C110.183 59.5939 110.029 59.4824 109.932 59.3252C109.835 59.1679 109.803 58.9776 109.843 58.7962C109.883 58.6148 109.992 58.457 110.145 58.3576C110.299 58.2581 110.485 58.2251 110.662 58.2658L124.843 61.5408C125.007 61.5788 125.153 61.6776 125.25 61.8182C125.348 61.9588 125.392 62.1314 125.374 62.303C125.355 62.4745 125.275 62.6331 125.149 62.7483C125.024 62.8635 124.861 62.9273 124.692 62.9275Z" fill="white"/>
<path d="M70.1187 194.74C70.0688 194.751 70.0179 194.756 69.967 194.755L55.4317 194.505C55.25 194.501 55.077 194.424 54.9508 194.29C54.8246 194.157 54.7554 193.977 54.7584 193.791C54.7614 193.605 54.8364 193.428 54.9669 193.299C55.0974 193.17 55.2728 193.098 55.4545 193.101L69.9898 193.351C70.1585 193.354 70.3203 193.421 70.4442 193.538C70.5681 193.655 70.6454 193.815 70.6613 193.987C70.6773 194.159 70.6307 194.331 70.5306 194.47C70.4305 194.609 70.2839 194.705 70.1187 194.74Z" fill="#E6E6E6"/>
<path d="M75.1504 202.694C75.1005 202.705 75.0497 202.71 74.9987 202.709L60.4634 202.458C60.2817 202.455 60.1088 202.378 59.9825 202.244C59.8563 202.11 59.7871 201.931 59.7901 201.745C59.7932 201.559 59.8681 201.382 59.9986 201.253C60.1292 201.123 60.3045 201.052 60.4862 201.055L75.0215 201.305C75.1902 201.308 75.352 201.374 75.4759 201.492C75.5998 201.609 75.6771 201.769 75.693 201.941C75.709 202.112 75.6625 202.284 75.5624 202.423C75.4623 202.562 75.3156 202.659 75.1504 202.694Z" fill="#E6E6E6"/>
</g>
<defs>
<clipPath id="clip0_141_2">
<rect width="283" height="228" fill="white"/>
</clipPath>
</defs>
</svg>
