<svg width="42" height="35" viewBox="0 0 42 35" fill="none" xmlns="http://www.w3.org/2000/svg">
<path d="M42 4.04057C40.4548 4.72564 38.7945 5.18871 37.0513 5.39652C38.8299 4.3302 40.1968 2.64153 40.8393 0.630521C39.1747 1.61776 37.33 2.33555 35.3681 2.72062C33.7967 1.04723 31.5571 0 29.0787 0C24.3203 0 20.4619 3.8573 20.4619 8.61676C20.4619 9.29146 20.5383 9.94979 20.6856 10.5809C13.524 10.2214 7.17518 6.79065 2.92516 1.57685C2.18337 2.84989 1.75848 4.33074 1.75848 5.90922C1.75848 8.89874 3.27969 11.5354 5.59178 13.0811C4.17966 13.0359 2.85098 12.6481 1.68921 12.0034C1.68812 12.0394 1.68812 12.0748 1.68812 12.1119C1.68812 16.2855 4.658 19.7681 8.5993 20.5607C7.8766 20.7565 7.11572 20.8623 6.32975 20.8623C5.77396 20.8623 5.23452 20.8088 4.70818 20.7079C5.8045 24.1305 8.98656 26.6226 12.7571 26.6924C9.80798 29.0029 6.09304 30.3812 2.05574 30.3812C1.36031 30.3812 0.674701 30.3408 0 30.2606C3.81312 32.7053 8.3424 34.131 13.2082 34.131C29.0574 34.131 37.7243 21.0019 37.7243 9.61653C37.7243 9.24346 37.7156 8.87093 37.6993 8.50058C39.3841 7.28644 40.8453 5.7685 42 4.04057Z" fill="white"/>
</svg>
